<svg width="24" height="24" viewBox="0 0 24 24" fill="none" xmlns="http://www.w3.org/2000/svg">
<path d="M12 22.75C6.07 22.75 1.25 17.93 1.25 12C1.25 6.07 6.07 1.25 12 1.25C17.93 1.25 22.75 6.07 22.75 12C22.75 17.93 17.93 22.75 12 22.75ZM12 2.75C6.9 2.75 2.75 6.9 2.75 12C2.75 17.1 6.9 21.25 12 21.25C17.1 21.25 21.25 17.1 21.25 12C21.25 6.9 17.1 2.75 12 2.75Z" fill="#5973DE"/>
<path d="M12 15.01C11.81 15.01 11.62 14.94 11.47 14.79L7.93999 11.26C7.80051 11.1189 7.72229 10.9284 7.72229 10.73C7.72229 10.5316 7.80051 10.3412 7.93999 10.2C8.22999 9.91001 8.70999 9.91001 8.99999 10.2L12 13.2L15 10.2C15.29 9.91001 15.77 9.91001 16.06 10.2C16.35 10.49 16.35 10.97 16.06 11.26L12.53 14.79C12.38 14.94 12.19 15.01 12 15.01Z" fill="#5973DE"/>
</svg>
