<svg width="25" height="25" viewBox="0 0 25 25" fill="none" xmlns="http://www.w3.org/2000/svg">
<path opacity="0.4" d="M15.0917 2.97733H9.3063C8.62801 2.97733 7.67043 3.37632 7.19164 3.85511L3.10197 7.94478C2.62317 8.42357 2.22418 9.38116 2.22418 10.0594V15.8448C2.22418 16.5231 2.62317 17.4807 3.10197 17.9595L7.19164 22.0492C7.67043 22.528 8.62801 22.9269 9.3063 22.9269H15.0917C15.77 22.9269 16.7276 22.528 17.2063 22.0492L21.296 17.9595C21.7748 17.4807 22.1738 16.5231 22.1738 15.8448V10.0594C22.1738 9.38116 21.7748 8.42357 21.296 7.94478L17.2063 3.85511C16.7276 3.37632 15.77 2.97733 15.0917 2.97733Z" fill="#FF0000"/>
<path d="M13.2563 12.9531L16.2188 9.99061C16.5081 9.70134 16.5081 9.22255 16.2188 8.93328C16.0781 8.79415 15.8881 8.71613 15.6902 8.71613C15.4922 8.71613 15.3023 8.79415 15.1615 8.93328L12.199 11.8958L9.23647 8.93328C9.09569 8.79415 8.90574 8.71613 8.70781 8.71613C8.50988 8.71613 8.31992 8.79415 8.17914 8.93328C7.88987 9.22255 7.88987 9.70134 8.17914 9.99061L11.1417 12.9531L8.17914 15.9156C7.88987 16.2049 7.88987 16.6837 8.17914 16.973C8.32876 17.1226 8.51828 17.1924 8.70781 17.1924C8.89733 17.1924 9.08685 17.1226 9.23647 16.973L12.199 14.0105L15.1615 16.973C15.3111 17.1226 15.5007 17.1924 15.6902 17.1924C15.8797 17.1924 16.0692 17.1226 16.2188 16.973C16.5081 16.6837 16.5081 16.2049 16.2188 15.9156L13.2563 12.9531Z" fill="#ECECEC"/>
</svg>
